<svg xmlns="http://www.w3.org/2000/svg" viewBox="0 0 64 64" width="64" height="64">
  <style>
    .st0{fill:#ffffff;}
    .st1{fill:none;stroke:#000000;stroke-width:2;}
    .st2{fill:#4CAF50;} /* Color verde para la ropa del enfermero */
    .st3{fill:#FFD700;} /* Color amarillo para el clipboard */
    .st4{fill:#F08080;} /* Color rosado para la piel */
    .st5{fill:#000000;} /* Color negro para los detalles */
  </style>
  <rect width="64" height="64" class="st0"/>
  <!-- Enfermero -->
  <g>
    <circle cx="32" cy="32" r="30" class="st0" stroke="#000" stroke-width="2"/>
    <!-- Cabeza y cuello -->
    <circle cx="32" cy="24" r="8" class="st4" stroke="#000" stroke-width="2"/>
    <rect x="28" y="32" width="8" height="10" class="st4" stroke="#000" stroke-width="2"/>
    <!-- Ropa del enfermero -->
    <path d="M20 60 V42 C20 36, 28 36, 28 42 V60 H36 V42 C36 36, 44 36, 44 42 V60 Z" class="st2" stroke="#000" stroke-width="2"/>
    <!-- Mascarilla -->
    <rect x="26" y="22" width="12" height="6" class="st0" stroke="#000" stroke-width="2"/>
    <!-- Gorro -->
    <rect x="24" y="14" width="16" height="8" class="st2" stroke="#000" stroke-width="2"/>
    <!-- Oídos -->
    <circle cx="24" cy="24" r="2" class="st4" stroke="#000" stroke-width="2"/>
    <circle cx="40" cy="24" r="2" class="st4" stroke="#000" stroke-width="2"/>
  </g>
  <!-- Clipboard -->
  <g transform="translate(42,32)">
    <rect x="0" y="0" width="12" height="16" class="st3" stroke="#000" stroke-width="2"/>
    <rect x="3" y="0" width="6" height="2" class="st0" stroke="#000" stroke-width="2"/>
    <path d="M3 6 H9 M3 10 H6 M3 14 H9" class="st5" stroke="#000" stroke-width="2"/>
  </g>
  <!-- Brillos -->
  <g transform="translate(8,4)">
    <path d="M50 14 L52 16 L50 18 L48 16 Z" class="st0" stroke="#000" stroke-width="2"/>
    <path d="M50 50 L52 52 L50 54 L48 52 Z" class="st0" stroke="#000" stroke-width="2"/>
  </g>
</svg>
